# xmcd CD database file
#
# Track frame offsets:
#	150
#	39410
#	76200
#	109050
#	158250
#	196800
#	220397
#	260100
#	311091
#
# Disc length: 4699 seconds
#
# Revision: 1
# Processed by: cddbd v1.5.2PL0 Copyright (c) Steve Scherf et al.
# Submitted via: CDex 1.70beta2
#
DISCID=71125909
DTITLE=Anthony Kerr Quartett - now hear this
DYEAR=1997
DGENRE=Jazz
TTITLE0=Everything I Love 
TTITLE1=Waltz for Milton 
TTITLE2=Now Hear This 
TTITLE3=I Didn't Know What Time It Was 
TTITLE4=The Night Flower 
TTITLE5=A Stitch in Time 
TTITLE6=Moses 
TTITLE7=The Peacocks 
TTITLE8=Lover
EXTD=YEAR: 1997
EXTT0=
EXTT1=
EXTT2=
EXTT3=
EXTT4=
EXTT5=
EXTT6=
EXTT7=
EXTT8=
PLAYORDER=
